<?xml version="1.0" standalone="no"?>
<!DOCTYPE svg PUBLIC "-//W3C//DTD SVG 20010904//EN" "http://www.w3.org/TR/2001/REC-SVG-20010904/DTD/svg10.dtd">
<!-- Created using Krita: https://krita.org -->
<svg xmlns="http://www.w3.org/2000/svg" 
    xmlns:xlink="http://www.w3.org/1999/xlink"
    xmlns:krita="http://krita.org/namespaces/svg/krita"
    xmlns:sodipodi="http://sodipodi.sourceforge.net/DTD/sodipodi-0.dtd"
    width="62.1pt"
    height="74.16pt"
    viewBox="0 0 62.1 74.16">
<defs/>
<g id="Background" transform="matrix(0.197142857142857 0 0 0.197142857142857 -5.11590769747272e-15 0.0171428571428532)" fill="none">
  <path id="Path 0" transform="translate(-5, -13)" fill="#ffffff" stroke-opacity="0" stroke="#000000" stroke-width="0" stroke-linecap="square" stroke-linejoin="bevel" d="M0 224L0 448L320 448L320 320L384 320L384 128L320 128L320 0L0 0Z" sodipodi:nodetypes="cccccccccc"/>
  <path id="Path 1" transform="translate(26.1100344575288, 35.4343145750507)" fill="#000000" stroke-opacity="0" stroke="#000000" stroke-width="0" stroke-linecap="square" stroke-linejoin="bevel" d="M138.39 0.165685C136.19 0.465685 129.69 1.46569 123.89 2.56569C118.09 3.66569 109.79 5.66569 105.39 7.16569C100.99 8.56569 93.09 11.8657 87.89 14.4657C82.69 17.0657 75.69 20.9657 72.39 23.2657C69.09 25.4657 63.29 29.9657 59.39 33.1657C55.59 36.3657 49.59 42.6657 46.09 47.0657C42.59 51.4657 37.59 59.5657 34.79 65.0657C32.09 70.5657 29.19 77.7657 28.29 81.0657C27.39 84.3657 26.39 92.6657 26.19 99.5657C25.89 107.166 26.09 114.266 26.79 117.566C27.89 122.866 27.79 123.266 25.09 127.566C23.49 130.066 17.09 139.966 10.89 149.566C0.189966 166.266 -0.310034 167.266 0.0899655 171.766C0.289966 175.466 1.08997 177.166 3.88997 179.966C6.48997 182.666 8.98997 183.866 13.69 185.066C17.09 185.866 20.79 186.566 21.89 186.566C23.79 186.566 23.79 186.766 22.39 190.066C21.59 191.966 20.89 194.866 20.89 196.566C20.89 198.566 21.99 200.766 24.19 203.166C25.89 205.066 28.29 206.966 29.39 207.166C31.19 207.666 30.99 207.966 28.19 209.666C26.39 210.666 24.39 212.466 23.89 213.566C23.39 214.666 22.89 216.566 22.89 217.866C22.89 219.066 23.49 220.966 24.29 222.066C25.19 223.366 25.99 228.366 26.39 236.066C26.89 244.166 27.79 249.566 28.99 252.566C29.99 255.066 32.59 258.766 34.59 260.766C36.69 262.766 40.39 265.366 42.89 266.466C45.39 267.566 51.39 268.966 56.39 269.566C61.39 270.166 69.89 270.666 75.39 270.566C80.89 270.466 86.19 270.366 87.19 270.466C88.09 270.466 89.49 271.766 90.29 273.366C91.09 274.866 92.19 279.466 92.79 283.566C93.29 287.666 94.09 294.566 94.39 298.866L94.89 306.566L239.89 306.566C239.89 301.966 239.19 297.266 238.39 293.266C237.49 289.366 235.89 280.466 234.79 273.566C233.39 265.066 232.69 256.266 232.69 246.066C232.69 237.766 233.19 228.366 233.89 225.066C234.59 221.766 237.29 213.466 240.09 206.566C242.79 199.666 251.89 180.166 260.49 163.066C271.29 141.366 276.59 129.666 277.99 124.066C279.19 119.666 280.29 111.566 280.59 106.066C280.99 98.0657 280.69 94.4657 279.19 88.0657C278.09 83.6657 275.59 76.6657 273.69 72.5657C271.79 68.4657 268.09 61.6657 265.39 57.5657C262.69 53.4657 255.49 45.0657 249.49 38.9657C243.39 32.8657 234.99 25.6657 230.89 23.0657C226.79 20.3657 219.09 15.9657 213.89 13.4657C208.69 10.8657 200.79 7.66569 196.39 6.26569C191.99 4.86569 184.59 2.96569 179.89 2.06569C175.19 1.16569 164.89 0.265685 156.89 0.0656854C148.89 -0.0343146 140.59 -0.0343146 138.39 0.165685Z" sodipodi:nodetypes="ccccccccccccccccccccccccccccccccccccccccccccccccccccccc"/>
  <path id="Path 2" transform="translate(34.6391749927615, 43.5034254612181)" fill="#ffffff" stroke-opacity="0" stroke="#000000" stroke-width="0" stroke-linecap="square" stroke-linejoin="bevel" d="M129.861 0.496575C124.961 0.996575 117.261 2.09657 112.861 2.99657C108.461 3.89657 101.061 6.09657 96.3608 7.69657C91.6608 9.39657 83.8608 12.7966 78.8608 15.2966C73.8608 17.8966 67.1608 21.9966 63.8608 24.3966C60.5608 26.8966 55.6608 30.8966 52.9608 33.3966C50.3608 35.8966 45.9608 40.6966 43.3608 43.9966C40.7608 47.2966 37.0608 52.8966 35.0608 56.4966C33.1608 60.0966 30.4608 66.5966 29.0608 70.9966C27.6608 75.3966 26.0608 82.7966 25.4608 87.4966C24.9608 92.1966 24.6608 97.0966 24.8608 98.4966C25.0608 99.8966 25.7608 104.397 26.4608 108.497L27.6608 115.997C20.6608 127.597 14.9608 136.797 10.3608 143.997C5.76083 151.197 1.56083 158.297 0.860825 159.997C0.160825 161.697 -0.139175 163.897 0.060825 164.997C0.360825 166.597 2.26083 167.397 10.6608 169.397C16.2608 170.697 21.6608 172.197 22.6608 172.597C23.5608 173.097 24.3608 174.597 24.3608 175.997C24.3608 177.397 23.3608 180.997 22.1608 183.997C20.8608 186.997 20.0608 189.597 20.3608 189.797C20.6608 189.997 25.7608 192.197 31.6608 194.597C37.5608 196.997 42.2608 199.397 42.1608 199.897C41.9608 200.397 37.5608 202.597 32.2608 204.897L22.5608 208.997C26.0608 215.297 26.3608 217.997 26.3608 225.997C26.2608 231.497 26.7608 237.597 27.3608 239.497C27.9608 241.397 29.0608 243.997 29.8608 245.297C30.6608 246.497 33.7608 248.597 36.6608 249.997C40.4608 251.797 44.6608 252.697 52.8608 253.497C58.8608 253.997 67.8608 254.197 72.8608 253.797C81.5608 253.197 81.9608 253.297 85.1608 255.897C87.5608 257.797 88.8608 260.197 90.3608 265.297C91.3608 268.997 92.7608 276.097 93.3608 280.997C93.9608 285.897 94.6608 290.197 94.9608 290.497C95.2608 290.797 124.061 291.197 158.961 291.497C200.861 291.797 222.361 291.697 222.361 290.997C222.361 290.397 221.261 284.397 219.861 277.497C218.561 270.597 216.961 259.597 216.261 252.997C215.661 246.397 215.361 236.297 215.661 230.497C216.061 224.697 216.761 217.497 217.461 214.497C218.061 211.497 220.461 204.297 222.661 198.497C224.861 192.697 233.461 174.697 241.661 158.497C250.561 140.997 257.961 124.897 259.861 118.997C261.761 113.397 263.461 105.697 263.761 101.497C264.161 97.3966 263.961 90.7966 263.461 86.9966C262.961 83.1966 261.161 76.1966 259.461 71.4966C257.761 66.6966 253.661 58.8966 250.161 53.4966C246.761 48.2966 240.261 40.3966 235.861 35.9966C231.461 31.5966 223.761 25.2966 218.861 21.8966C213.961 18.5966 207.161 14.5966 203.861 13.0966C200.561 11.4966 193.361 8.69657 187.861 6.79657C182.361 4.99657 174.061 2.79657 169.361 1.99657C164.661 1.29657 155.961 0.396575 149.861 0.0965745C143.761 -0.103425 134.761 -0.00342546 129.861 0.496575Z" sodipodi:nodetypes="ccccccccccccccccccccccccccccccccccccccccccccccccccccccc"/>
 </g><text id="shape0" krita:useRichText="true" text-rendering="auto" krita:textVersion="3" transform="matrix(1.03550852501634 0 0 1.03550852501634 16.0948880323522 23.4913143347196)" fill="#e8e8e8" stroke-opacity="0" stroke="#000000" stroke-width="0" stroke-linecap="square" stroke-linejoin="bevel" letter-spacing="0" style="text-align: start;text-align-last: auto;font-family: Outfit;font-size: 9;"><tspan x="0">counter-</tspan><tspan x="0" dy="12">joculation</tspan></text><text id="shape1" krita:useRichText="true" text-rendering="auto" krita:textVersion="3" transform="matrix(0.948576832320815 0 0 0.948576832320815 14.2757752453622 25.5670760195674)" fill="#000000" stroke-opacity="0" stroke="#000000" stroke-width="0" stroke-linecap="square" stroke-linejoin="bevel" letter-spacing="0" style="text-align: start;text-align-last: auto;font-family: Outfit;font-size: 9;"><tspan x="0">counter-</tspan><tspan x="0" dy="12">joculation</tspan></text>
</svg>
